<svg width="41" height="45" viewBox="0 0 41 45" fill="none" xmlns="http://www.w3.org/2000/svg">
<path id="Union" fill-rule="evenodd" clip-rule="evenodd" d="M10.3531 4.28458C13.0442 1.54121 16.6942 0 20.5 0C24.3058 0 27.9558 1.54121 30.6469 4.28458C33.338 7.02796 34.8499 10.7488 34.8499 14.6285C34.8499 21.6348 36.3199 25.9857 37.6746 28.5175C38.3547 29.7887 39.017 30.6226 39.4771 31.1177C39.7077 31.3658 39.8889 31.5303 39.998 31.623C40.0525 31.6693 40.0891 31.6978 40.1049 31.7097L40.1108 31.7141C40.8457 32.2288 41.1709 33.1701 40.9119 34.0421C40.6501 34.9235 39.8532 35.5263 38.9499 35.5263H2.05015C1.14679 35.5263 0.349905 34.9235 0.0881254 34.0421C-0.170875 33.1701 0.154333 32.2288 0.889221 31.7141L0.89508 31.7097C0.910863 31.6978 0.947463 31.6693 1.00204 31.623C1.11113 31.5303 1.29231 31.3658 1.52289 31.1177C1.98296 30.6226 2.64528 29.7887 3.32545 28.5175C4.68014 25.9857 6.15012 21.6348 6.15012 14.6285C6.15012 10.7488 7.66198 7.02796 10.3531 4.28458ZM18.8299 40.0636C18.2948 39.1197 17.1133 38.7984 16.1909 39.3459C15.2685 39.8935 14.9545 41.1026 15.4896 42.0466C15.9988 42.9448 16.7296 43.6905 17.609 44.2088C18.4883 44.7271 19.4853 44.9999 20.5 44.9999C21.5148 44.9999 22.5118 44.7271 23.3911 44.2088C24.2705 43.6905 25.0013 42.9448 25.5105 42.0466C26.0456 41.1026 25.7316 39.8935 24.8092 39.3459C23.8868 38.7984 22.7053 39.1197 22.1702 40.0636C22.0005 40.3631 21.7568 40.6116 21.4637 40.7844C21.1706 40.9572 20.8383 41.0481 20.5 41.0481C20.1618 41.0481 19.8295 40.9572 19.5364 40.7844C19.2432 40.6116 18.9996 40.3631 18.8299 40.0636Z" fill="#434343"/>
</svg>
