<svg width="18" height="18" viewBox="0 0 18 18" fill="none" xmlns="http://www.w3.org/2000/svg">
<g id="Group 52">
<path id="Vector (Stroke)" fill-rule="evenodd" clip-rule="evenodd" d="M1.46447 12.1178C2.40215 11.2739 3.67392 10.7998 5 10.7998H13C14.3261 10.7998 15.5979 11.2739 16.5355 12.1178C17.4732 12.9617 18 14.1063 18 15.2998V17.0998C18 17.5969 17.5523 17.9998 17 17.9998C16.4477 17.9998 16 17.5969 16 17.0998V15.2998C16 14.5837 15.6839 13.897 15.1213 13.3906C14.5587 12.8843 13.7956 12.5998 13 12.5998H5C4.20435 12.5998 3.44129 12.8843 2.87868 13.3906C2.31607 13.897 2 14.5837 2 15.2998V17.0998C2 17.5969 1.55228 17.9998 1 17.9998C0.447715 17.9998 0 17.5969 0 17.0998V15.2998C0 14.1063 0.526784 12.9617 1.46447 12.1178Z" fill="#848484"/>
<path id="Vector (Stroke)_2" fill-rule="evenodd" clip-rule="evenodd" d="M9 1.8C7.34315 1.8 6 3.00883 6 4.5C6 5.99117 7.34315 7.2 9 7.2C10.6569 7.2 12 5.99117 12 4.5C12 3.00883 10.6569 1.8 9 1.8ZM4 4.5C4 2.01472 6.23858 0 9 0C11.7614 0 14 2.01472 14 4.5C14 6.98528 11.7614 9 9 9C6.23858 9 4 6.98528 4 4.5Z" fill="#848484"/>
</g>
</svg>
