<svg width="31" height="42" viewBox="0 0 31 42" fill="none" xmlns="http://www.w3.org/2000/svg">
<path id="Vector" d="M27.125 14H25.1875V10C25.1875 4.48 20.8475 0 15.5 0C10.1525 0 5.8125 4.48 5.8125 10V14H3.875C1.74375 14 0 15.8 0 18V38C0 40.2 1.74375 42 3.875 42H27.125C29.2563 42 31 40.2 31 38V18C31 15.8 29.2563 14 27.125 14ZM15.5 32C13.3687 32 11.625 30.2 11.625 28C11.625 25.8 13.3687 24 15.5 24C17.6313 24 19.375 25.8 19.375 28C19.375 30.2 17.6313 32 15.5 32ZM21.5063 14H9.49375V10C9.49375 6.58 12.1869 3.8 15.5 3.8C18.8131 3.8 21.5063 6.58 21.5063 10V14Z" fill="#CECECE"/>
</svg>
