<svg width="187" height="115" viewBox="0 0 187 115" fill="none" xmlns="http://www.w3.org/2000/svg">
<rect x="142" y="45" width="33" height="25" rx="7" fill="#FFCFCF"/>
<rect x="142" y="18" width="33" height="24" rx="7" fill="#FFE2E2"/>
<rect x="142" y="74" width="45" height="24" rx="7" fill="#FFBFBF"/>
<path d="M0 20C0 8.95431 8.95431 0 20 0H25.6053C33.7093 0 41.0124 4.89047 44.0984 12.3839L65.5662 64.5114C65.722 64.8898 66.0908 65.1367 66.5 65.1367C66.9092 65.1367 67.278 64.8898 67.4338 64.5114L88.9016 12.3839C91.9876 4.89046 99.2906 0 107.395 0H113C124.046 0 133 8.95431 133 20V99.6712C133 108.137 126.137 115 117.671 115C109.205 115 102.342 108.137 102.342 99.6712V49.0516C102.342 48.7556 102.102 48.5156 101.806 48.5156C101.586 48.5156 101.388 48.6507 101.307 48.8561L79.11 105.507C77.0787 110.691 72.0793 114.102 66.5115 114.102C60.9322 114.102 55.925 110.677 53.9016 105.478L31.6921 48.4077C31.6121 48.2019 31.4139 48.0664 31.1931 48.0664C30.8974 48.0664 30.6576 48.3061 30.6576 48.6019V99.6712C30.6576 108.137 23.7947 115 15.3288 115C6.86294 115 0 108.137 0 99.6712V20Z" fill="url(#paint0_linear_3_218)"/>
<defs>
<linearGradient id="paint0_linear_3_218" x1="66.5" y1="0" x2="66.5" y2="115" gradientUnits="userSpaceOnUse">
<stop stop-color="#FF9F9F"/>
<stop offset="1" stop-color="#FFBFBF"/>
</linearGradient>
</defs>
</svg>
